<svg version="1.2" xmlns="http://www.w3.org/2000/svg" viewBox="0 0 24 24" width="24" height="24">
	<title>logo-dark</title>
	<style>
		.s0 { fill: #e5e5e5 } 
	</style>
	<path class="s0" d="m19 4.3q0.3 0.4 0.1 0.7l-5.8 14.5q-0.1 0.2-0.3 0.3-0.2 0.2-0.4 0.2h-1.9q-0.2 0-0.4-0.2-0.2-0.1-0.3-0.3l-5.9-14.5q-0.1-0.3 0.1-0.7 0.2-0.3 0.6-0.3h7.2q0.3 0 0.5 0.2 0.2 0.2 0.2 0.6v1.5q0 0.3-0.2 0.6-0.2 0.2-0.5 0.2h-3.6l3.2 8.2 4.3-10.8q0.1-0.2 0.3-0.4 0.2-0.1 0.4-0.1h1.8q0.2 0 0.4 0.1 0.2 0.1 0.2 0.2z"/>
</svg>